# xmcd
#
# Track frame offsets:
#	150
#	28943
#	51315
#	81563
#	106310
#	132720
#	168720
#
# Disc length: 2359 seconds
#
# Revision: 3
# Processed by: cddbd v1.5.2PL0 Copyright (c) Steve Scherf et al.
# Submitted via: EZCDAudioConverter 1.3.4.1
#
DISCID=69093507
DTITLE=Dr. John - The Sun Moon and Herbs
DYEAR=1971
DGENRE=Blues
TTITLE0=Black John The Conqueror
TTITLE1=Where Ya At Mule
TTITLE2=Craney Crow
TTITLE3=Familiar Reality (Opening)
TTITLE4=Pots On Fiyo (Filé Gumbo) - Who I Got To Fall On (If The Pot Get Heavy
TTITLE4=)
TTITLE5=Zu Zu Mamou
TTITLE6=Familiar Reality (Reprise)
EXTD=
EXTT0=
EXTT1=
EXTT2=
EXTT3=
EXTT4=
EXTT5=
EXTT6=
PLAYORDER=
